<svg data-v-d3f97b9e="" xmlns="http://www.w3.org/2000/svg" viewBox="0 0 60 60"><!----><!----><!----><!----><g data-v-d3f97b9e="" id="b01bbbba-adb6-4a3e-a469-f9d0d852f0dc" transform="matrix(0.6037735849056604,0,0,0.6037735849056604,-0.18898085996789504,-0.18898096624410243)" stroke="none" fill="white"><path d="M50 69.23c-10.603 0-19.229-8.627-19.229-19.23a4 4 0 0 1 8 0c0 6.192 5.037 11.23 11.229 11.23a4 4 0 0 1 0 8zM65.23 54a4 4 0 0 1-4-4c0-6.191-5.038-11.229-11.23-11.229a4 4 0 0 1 0-8c10.604 0 19.23 8.626 19.23 19.229a4 4 0 0 1-4 4z"></path><path d="M50 84.457C31 84.457 15.542 69 15.542 50a4 4 0 0 1 8 0c0 14.589 11.869 26.457 26.458 26.457a4 4 0 0 1 0 8zM80.457 54a4 4 0 0 1-4-4c0-14.589-11.868-26.458-26.457-26.458a4 4 0 0 1 0-8C69 15.542 84.457 31 84.457 50a4 4 0 0 1-4 4z"></path><path d="M50 99.688C22.603 99.688.313 77.397.313 50a4 4 0 0 1 8 0c0 22.986 18.701 41.688 41.687 41.688a4 4 0 0 1 0 8zM95.688 54a4 4 0 0 1-4-4C91.688 27.014 72.986 8.313 50 8.313a4 4 0 0 1 0-8C77.397.313 99.688 22.603 99.688 50a4 4 0 0 1-4 4z"></path></g><!----></svg>