<svg data-v-d3f97b9e="" xmlns="http://www.w3.org/2000/svg" viewBox="0 0 54.73466491699219 60"><!----><!----><!----><!----><g data-v-d3f97b9e="" id="90d17b28-aea0-4117-91ac-bab06626cf5e" transform="matrix(0.6666666666666666,0,0,0.6666666666666666,-5.966001192728676,-3.3333333333333286)" stroke="none" fill="white"><path d="M67.861 63.913c4.769-4.768 7.395-11.111 7.395-17.862 0-6.75-2.626-13.094-7.395-17.86C63.092 23.42 56.749 20.795 50 20.795S36.908 23.42 32.139 28.19c-4.769 4.767-7.395 11.11-7.395 17.86 0 6.751 2.626 13.095 7.395 17.862L34.35 61.7c-4.178-4.177-6.479-9.734-6.479-15.65 0-5.915 2.301-11.472 6.479-15.649 4.179-4.179 9.737-6.479 15.65-6.479s11.472 2.301 15.65 6.479c4.178 4.178 6.479 9.734 6.479 15.649 0 5.916-2.301 11.474-6.479 15.65l2.211 2.213z"></path><path d="M50 5C39.03 5 28.719 9.269 20.969 17.019 13.217 24.77 8.949 35.08 8.949 46.051c0 10.973 4.268 21.283 12.02 29.033l2.21-2.211c-7.159-7.16-11.103-16.686-11.103-26.822S16.02 26.39 23.179 19.229C30.34 12.07 39.865 8.127 50 8.127S69.66 12.07 76.821 19.23c7.159 7.16 11.103 16.685 11.103 26.821S83.98 65.713 76.821 72.873l2.21 2.211c7.752-7.75 12.02-18.061 12.02-29.033 0-10.971-4.268-21.281-12.02-29.032C71.281 9.269 60.97 5 50 5z"></path><path d="M38.185 58.959l2.107 30.752C40.487 92.627 42.72 95 45.268 95h9.464c2.549 0 4.781-2.373 4.977-5.287l2.107-30.754c.108-1.57-.391-3.072-1.369-4.119-.824-.884-1.92-1.37-3.087-1.37H42.641c-1.167 0-2.263.486-3.087 1.37-.979 1.047-1.478 2.549-1.369 4.119zm3.655-1.985c.233-.249.502-.376.801-.376H57.36c.299 0 .567.127.801.376.384.411.584 1.073.535 1.772l-2.107 30.755c-.094 1.397-1.054 2.372-1.856 2.372h-9.464c-.802 0-1.762-.975-1.855-2.374l-2.107-30.753c-.051-.699.149-1.361.533-1.772zM50 51.572c5.217 0 9.461-4.247 9.461-9.468 0-5.214-4.244-9.455-9.461-9.455s-9.461 4.241-9.461 9.455c0 5.221 4.244 9.468 9.461 9.468zm0-15.795c3.492 0 6.334 2.838 6.334 6.327 0 3.495-2.842 6.341-6.334 6.341s-6.334-2.846-6.334-6.341c0-3.489 2.842-6.327 6.334-6.327z"></path></g><!----></svg>